<?xml version="1.0" encoding="UTF-8"?>
<svg id="a" data-name="Layer 1" xmlns="http://www.w3.org/2000/svg" viewBox="0 0 500 500">
  <g>
    <path d="m370.23,68h0c-4.55,0-8.23-3.69-8.23-8.23v-30.39c0-3.52-2.86-6.38-6.38-6.38h-210.24c-3.52,0-6.38,2.86-6.38,6.38v30.39c0,4.55-3.69,8.23-8.23,8.23h0c-9.26,0-16.77,7.51-16.77,16.77v53.47c0,9.26,7.51,16.77,16.77,16.77h0c4.55,0,8.23,3.69,8.23,8.23v24.82c0,22.06,17.89,39.95,39.95,39.95h0c12.73,0,23.05,10.32,23.05,23.05v29.95s97,0,97,0v-29.95c0-12.73,10.32-23.05,23.05-23.05h0c22.06,0,39.95-17.89,39.95-39.95v-24.81c0-4.55,3.69-8.23,8.23-8.23h0c9.26,0,16.77-7.51,16.77-16.77v-53.47c0-9.26-7.51-16.77-16.77-16.77Z" style="fill: #80b4ff;"/>
    <path d="m355,135c-50-6-84,14-108.23,17-24.23,3-64.77-7-86.77-17-16.2-7.37-31.86-3.88-46,.47v2.77c0,9.26,7.51,16.77,16.77,16.77,4.55,0,8.23,3.69,8.23,8.23v24.82c0,22.06,17.89,39.95,39.95,39.95h0c12.73,0,23.05,10.32,23.05,23.05v19.95h97v-19.95c0-12.73,10.32-23.05,23.05-23.05h0c22.06,0,39.95-17.89,39.95-39.95v-24.82c0-4.55,3.69-8.23,8.23-8.23,8.52,0,15.54-6.36,16.61-14.58-8.54-1.98-19.03-3.88-31.84-5.42Z" style="fill: #7ddaff;"/>
    <path d="m355.62,27c1.31,0,2.38,1.07,2.38,2.38v30.39c0,6.75,5.49,12.23,12.23,12.23s12.77,5.73,12.77,12.77v53.47c0,7.04-5.73,12.77-12.77,12.77s-12.23,5.49-12.23,12.23v24.82c0,19.82-16.13,35.95-35.95,35.95-14.92,0-27.05,12.13-27.05,27.05v25.95h-89v-25.95c0-14.92-12.13-27.05-27.05-27.05-19.82,0-35.95-16.13-35.95-35.95v-24.82c0-6.75-5.49-12.23-12.23-12.23s-12.77-5.73-12.77-12.77v-53.47c0-7.04,5.73-12.77,12.77-12.77s12.23-5.49,12.23-12.23v-30.39c0-1.31,1.07-2.38,2.38-2.38h210.24m0-4h-210.24c-3.52,0-6.38,2.86-6.38,6.38v30.39c0,4.55-3.69,8.23-8.23,8.23-9.26,0-16.77,7.51-16.77,16.77v53.47c0,9.26,7.51,16.77,16.77,16.77,4.55,0,8.23,3.69,8.23,8.23v24.82c0,22.06,17.89,39.95,39.95,39.95h0c12.73,0,23.05,10.32,23.05,23.05v29.95h97v-29.95c0-12.73,10.32-23.05,23.05-23.05h0c22.06,0,39.95-17.89,39.95-39.95v-24.82c0-4.55,3.69-8.23,8.23-8.23,9.26,0,16.77-7.51,16.77-16.77v-53.47c0-9.26-7.51-16.77-16.77-16.77-4.55,0-8.23-3.69-8.23-8.23v-30.39c0-3.52-2.86-6.38-6.38-6.38h0Z"/>
  </g>
  <g>
    <path d="m415.97,477H85.03c-3.88,0-7.03-3.15-7.03-7.03v-115.78c0-54.23,43.96-98.19,98.19-98.19h148.62c54.23,0,98.19,43.96,98.19,98.19v115.78c0,3.88-3.15,7.03-7.03,7.03Z" style="fill: #677477;"/>
    <path d="m352,477h-204v-105.96c0-31.5,25.54-57.04,57.04-57.04h89.92c31.5,0,57.04,25.54,57.04,57.04v105.96Z" style="fill: #95acaf;"/>
    <path d="m205.04,314h89.92c31.48,0,57.04,25.56,57.04,57.04v103.96h-204v-103.96c0-31.48,25.56-57.04,57.04-57.04Z" style="fill: none; stroke: #000; stroke-miterlimit: 10; stroke-width: 4px;"/>
    <path d="m324.81,260c51.94,0,94.19,42.25,94.19,94.19v115.78c0,1.67-1.36,3.03-3.03,3.03H85.03c-1.67,0-3.03-1.36-3.03-3.03v-115.78c0-51.94,42.25-94.19,94.19-94.19h148.62m0-4h-148.62c-54.23,0-98.19,43.96-98.19,98.19v115.78c0,3.88,3.15,7.03,7.03,7.03h330.94c3.88,0,7.03-3.15,7.03-7.03v-115.78c0-54.23-43.96-98.19-98.19-98.19h0Z"/>
  </g>
  <g>
    <path d="m250.5,389h0c-9.17,0-16.6-7.43-16.6-16.6v-3.64c0-3.17.91-6.28,2.62-8.95l13.97-21.81,13.97,21.81c1.71,2.67,2.62,5.78,2.62,8.95v3.64c0,9.17-7.43,16.6-16.6,16.6Z" style="fill: #7ddaff;"/>
    <path d="m250.5,338l13.97,21.81c1.71,2.67,2.62,5.78,2.62,8.95v3.64c0,9.17-7.43,16.6-16.6,16.6h0c-9.17,0-16.6-7.43-16.6-16.6v-3.64c0-3.17.91-6.28,2.62-8.95l13.97-21.81m0-7.42l-3.37,5.26-13.97,21.81c-2.13,3.32-3.25,7.16-3.25,11.11v3.64c0,11.36,9.24,20.6,20.6,20.6s20.6-9.24,20.6-20.6v-3.64c0-3.95-1.12-7.79-3.25-11.11l-13.97-21.81-3.37-5.26h0Z"/>
  </g>
  <g>
    <path d="m255.91,340h-10.81c-4.5,0-8.34-4.2-9.04-9.91l-5.96-48.2c-.71-5.72,2.73-10.89,7.24-10.89h26.33c4.51,0,7.95,5.17,7.24,10.89l-5.96,48.2c-.71,5.71-4.54,9.91-9.04,9.91Z" style="fill: #2a3133;"/>
    <path d="m263.67,271c4.51,0,7.95,5.17,7.24,10.89l-5.96,48.2c-.71,5.71-4.54,9.91-9.04,9.91h-10.81c-4.5,0-8.34-4.2-9.04-9.91l-5.96-48.2c-.71-5.72,2.73-10.89,7.24-10.89h26.33m0-4h-26.33c-2.95,0-5.73,1.31-7.84,3.69-2.65,2.99-3.91,7.36-3.37,11.69l5.96,48.2c.96,7.78,6.43,13.42,13.01,13.42h10.81c6.58,0,12.05-5.64,13.01-13.42l5.96-48.2c.53-4.32-.73-8.69-3.37-11.69-2.11-2.38-4.89-3.69-7.84-3.69h0Z"/>
  </g>
  <g>
    <path d="m280.69,487h-60.38c-1.88,0-3.45-1.43-3.64-3.3l-9.28-93.69c-.21-2.15,1.48-4.02,3.64-4.02h78.93c2.16,0,3.85,1.87,3.64,4.02l-9.28,93.69c-.19,1.87-1.76,3.3-3.64,3.3Z" style="fill: #638aea;"/>
    <path d="m216.67,483.7c.19,1.87,1.76,3.3,3.64,3.3h60.38c1.88,0,3.45-1.43,3.64-3.3l6.62-66.85c-9.64.17-22.17-1.86-28.58-3.86-9.63-3-30.37,4-36.37,4-3.44,0-9.83-1.31-16.17-2.43l6.85,69.14Z" style="fill: #80b4ff;"/>
    <path d="m280.69,487h-60.38c-1.88,0-3.45-1.43-3.64-3.3l-9.28-93.69c-.21-2.15,1.48-4.02,3.64-4.02h78.93c2.16,0,3.85,1.87,3.64,4.02l-9.28,93.69c-.19,1.87-1.76,3.3-3.64,3.3Z" style="fill: none; stroke: #000; stroke-miterlimit: 10; stroke-width: 5px;"/>
  </g>
</svg>